<svg width="33" height="37" viewBox="0 0 33 37" fill="none" xmlns="http://www.w3.org/2000/svg">
<path d="M28.9132 36.6219H3.82992C1.85089 36.6219 0.246582 35.0176 0.246582 33.0386V7.95524C0.246582 5.97622 1.85089 4.37191 3.82992 4.37191H7.41325V0.788574H10.9966V4.37191H21.7466V0.788574H25.3299V4.37191H28.9132C30.8923 4.37191 32.4966 5.97622 32.4966 7.95524V33.0386C32.4966 35.0176 30.8923 36.6219 28.9132 36.6219ZM3.82992 15.1219V33.0386H28.9132V15.1219H3.82992ZM3.82992 7.95524V11.5386H28.9132V7.95524H3.82992ZM25.3299 29.4552H21.7466V25.8719H25.3299V29.4552ZM18.1632 29.4552H14.5799V25.8719H18.1632V29.4552ZM10.9966 29.4552H7.41325V25.8719H10.9966V29.4552ZM25.3299 22.2886H21.7466V18.7052H25.3299V22.2886ZM18.1632 22.2886H14.5799V18.7052H18.1632V22.2886ZM10.9966 22.2886H7.41325V18.7052H10.9966V22.2886Z" fill="#B1B1B1"/>
</svg>
