<svg width="22" height="36" viewBox="0 0 22 36" fill="none" xmlns="http://www.w3.org/2000/svg">
<path d="M17.0878 34.6244C17.5218 35.0584 18.0743 35.2952 18.7253 35.2952C20.0275 35.2952 21.0731 34.2692 21.0731 32.9671C21.0731 32.316 20.7969 31.7241 20.3432 31.2704L6.53255 17.7754L20.3432 4.31997C20.7969 3.86619 21.0731 3.25458 21.0731 2.62324C21.0731 1.3211 20.0275 0.295166 18.7253 0.295166C18.0743 0.295166 17.5218 0.531919 17.0878 0.965966L1.7383 15.9603C1.18588 16.4733 0.929397 17.1046 0.909668 17.7952C0.909668 18.4857 1.18588 19.0776 1.7383 19.6103L17.0878 34.6244Z" fill="#BDBDBD"/>
</svg>
