<svg width="33" height="37" viewBox="0 0 33 37" fill="none" xmlns="http://www.w3.org/2000/svg">
<path d="M29.2177 36.3465H3.88464C1.88591 36.3465 0.265625 34.7262 0.265625 32.7275V7.3944C0.265625 5.39567 1.88591 3.77539 3.88464 3.77539H7.50365V0.156372H11.1227V3.77539H21.9797V0.156372H25.5987V3.77539H29.2177C31.2165 3.77539 32.8368 5.39567 32.8368 7.3944V32.7275C32.8368 34.7262 31.2165 36.3465 29.2177 36.3465ZM3.88464 14.6324V32.7275H29.2177V14.6324H3.88464ZM3.88464 7.3944V11.0134H29.2177V7.3944H3.88464ZM18.3607 29.1085H14.7417V25.4895H11.1227V21.8705H14.7417V18.2514H18.3607V21.8705H21.9797V25.4895H18.3607V29.1085Z" fill="#B1B1B1"/>
<path d="M5.24805 14.6978H27.8548V32.3293H5.24805V14.6978Z" fill="white"/>
<path d="M15.4068 30.5177H6.58899V28.7683L10.7505 24.3329C11.3219 23.7085 11.743 23.1637 12.014 22.6983C12.2908 22.233 12.4292 21.7912 12.4292 21.373C12.4292 20.8016 12.2849 20.354 11.9963 20.03C11.7077 19.7001 11.2954 19.5352 10.7593 19.5352C10.1821 19.5352 9.72559 19.7355 9.38984 20.136C9.05998 20.5307 8.89505 21.052 8.89505 21.6999H6.33276C6.33276 20.9165 6.51831 20.2008 6.8894 19.5529C7.26638 18.905 7.79651 18.3984 8.47979 18.0332C9.16306 17.6621 9.93764 17.4765 10.8035 17.4765C12.1288 17.4765 13.1567 17.7946 13.8871 18.4308C14.6234 19.0669 14.9915 19.9652 14.9915 21.1256C14.9915 21.7618 14.8266 22.4097 14.4968 23.0694C14.1669 23.7291 13.6014 24.4978 12.8003 25.3755L9.87579 28.4591H15.4068V30.5177Z" fill="#B1B1B1"/>
<path d="M25.7973 30.5177H16.9795V28.7683L21.141 24.3329C21.7124 23.7085 22.1336 23.1637 22.4045 22.6983C22.6814 22.233 22.8198 21.7912 22.8198 21.373C22.8198 20.8016 22.6755 20.354 22.3868 20.03C22.0982 19.7001 21.6859 19.5352 21.1499 19.5352C20.5726 19.5352 20.1161 19.7355 19.7804 20.136C19.4505 20.5307 19.2856 21.052 19.2856 21.6999H16.7233C16.7233 20.9165 16.9088 20.2008 17.2799 19.5529C17.6569 18.905 18.187 18.3984 18.8703 18.0332C19.5536 17.6621 20.3282 17.4765 21.194 17.4765C22.5194 17.4765 23.5472 17.7946 24.2776 18.4308C25.0139 19.0669 25.3821 19.9652 25.3821 21.1256C25.3821 21.7618 25.2171 22.4097 24.8873 23.0694C24.5574 23.7291 23.992 24.4978 23.1909 25.3755L20.2663 28.4591H25.7973V30.5177Z" fill="#B1B1B1"/>
</svg>
