<svg width="145" height="196" viewBox="0 0 145 196" fill="none" xmlns="http://www.w3.org/2000/svg">
<path d="M41.5608 182.632C39.8268 182.632 39.1468 181.476 39.1468 179.198C39.1468 176.784 39.8608 175.628 41.5608 175.628C42.9888 175.628 43.8728 176.784 43.8728 178.586V179.878C43.8728 181.544 42.9208 182.632 41.5608 182.632ZM43.8728 187.188H49.6528V165.36H43.8728V174.982L43.6348 175.152C42.7508 172.126 41.0168 170.426 38.7048 170.426C35.4068 170.426 33.5368 173.486 33.5368 179.198C33.5368 184.74 35.4408 187.698 38.6028 187.698C41.1868 187.698 42.9548 185.658 43.7368 182.394L43.7708 183.006L43.8728 182.904V187.188ZM60.5737 187.698C65.8097 187.698 69.0737 184.468 69.0737 179.062C69.0737 173.622 65.8097 170.426 60.5737 170.426C55.2357 170.426 52.0057 173.622 52.0057 179.062C52.0057 184.468 55.2357 187.698 60.5737 187.698ZM60.5397 175.22C62.6137 175.22 63.3277 176.58 63.3277 179.062C63.3277 181.544 62.6137 182.836 60.5397 182.836C58.4997 182.836 57.7857 181.544 57.7857 179.062C57.7857 176.58 58.4997 175.22 60.5397 175.22ZM78.3894 187.698C83.5234 187.698 85.7334 185.794 85.7334 182.462C85.7334 179.98 84.7134 178.178 79.3754 176.988C76.6554 176.376 76.4514 175.866 76.4514 175.254C76.4514 174.608 76.9954 174.268 78.1174 174.268C79.5114 174.268 80.0214 174.846 80.2594 176.138L85.3594 175.084C84.8494 172.296 83.2854 170.426 78.2534 170.426C73.3574 170.426 71.0114 172.262 71.0114 175.594C71.0114 178.518 72.5074 179.946 77.0974 181.034C79.8174 181.646 80.1914 182.088 80.1914 182.734C80.1574 183.448 79.6134 183.754 78.5254 183.754C77.1654 183.754 76.1794 183.21 75.8054 181.646L70.6714 182.7C71.0114 185.454 72.5754 187.698 78.3894 187.698ZM93.8106 169.202V165.36H88.0306V169.202H93.8106ZM93.8106 187.188V170.936H88.0306V187.188H93.8106ZM103.774 187.698C108.908 187.698 111.118 185.794 111.118 182.462C111.118 179.98 110.098 178.178 104.76 176.988C102.04 176.376 101.836 175.866 101.836 175.254C101.836 174.608 102.38 174.268 103.502 174.268C104.896 174.268 105.406 174.846 105.644 176.138L110.744 175.084C110.234 172.296 108.67 170.426 103.638 170.426C98.7422 170.426 96.3962 172.262 96.3962 175.594C96.3962 178.518 97.8922 179.946 102.482 181.034C105.202 181.646 105.576 182.088 105.576 182.734C105.542 183.448 104.998 183.754 103.91 183.754C102.55 183.754 101.564 183.21 101.19 181.646L96.0562 182.7C96.3962 185.454 97.9602 187.698 103.774 187.698Z" fill="#F4F7D3"/>
<path d="M35.7959 143.899C16.3152 143.899 0.522949 128.107 0.522948 108.626L0.522944 35.6794C0.522944 16.1987 16.3152 0.406432 35.7959 0.406432L108.743 0.406428C128.224 0.406428 144.016 16.1987 144.016 35.6794L144.016 108.626C144.016 128.107 128.224 143.899 108.743 143.899L35.7959 143.899Z" fill="#F4F7D3"/>
<path d="M94.3696 60.2725L94.3696 91.3956L81.4016 91.3956C72.8072 91.3956 65.8401 84.4285 65.8401 75.834C65.8401 67.2396 72.8072 60.2725 81.4016 60.2725L94.3696 60.2725Z" fill="#ACC6FF"/>
<path d="M94.3691 60.2725L94.3691 91.3956L107.337 91.3956C115.932 91.3956 122.899 84.4285 122.899 75.834C122.899 67.2396 115.932 60.2725 107.337 60.2725L94.3691 60.2725Z" fill="#4C73F4"/>
<path fill-rule="evenodd" clip-rule="evenodd" d="M87.1098 112.3C87.1098 120.895 80.1426 127.862 71.5482 127.862C62.9538 127.862 55.9866 120.895 55.9866 112.3V91.7076H35.085C26.4906 91.7076 19.5234 84.7405 19.5234 76.146C19.5234 67.5516 26.4906 60.5845 35.085 60.5845H55.9866L55.9866 39.6797C55.9866 31.0853 62.9538 24.1182 71.5482 24.1182C80.1426 24.1182 87.1098 31.0853 87.1098 39.6797L87.1098 60.2726H81.5C72.9048 60.2726 65.937 67.2404 65.937 75.8357C65.937 84.4309 72.9048 91.3987 81.5 91.3987H87.1098V112.3Z" fill="#4C73F4"/>
</svg>
