<svg width="321" height="467" viewBox="0 0 321 467" fill="none" xmlns="http://www.w3.org/2000/svg">
<g filter="url(#filter0_d)">
<path d="M230.175 109.963L230.175 203.855L191.053 203.855C165.125 203.855 144.107 182.837 144.107 156.909C144.107 130.981 165.125 109.963 191.053 109.963L230.175 109.963Z" fill="#ACC6FF"/>
<path d="M230.175 109.963L230.175 203.855L269.297 203.855C295.224 203.855 316.243 182.837 316.243 156.909C316.243 130.981 295.224 109.963 269.297 109.963L230.175 109.963Z" fill="#4C73F4"/>
<path fill-rule="evenodd" clip-rule="evenodd" d="M208.275 266.923C208.275 292.851 187.257 313.869 161.329 313.869C135.401 313.869 114.383 292.851 114.383 266.923L114.383 204.798H51.3282C25.4004 204.798 4.38183 183.78 4.38184 157.852C4.38184 131.924 25.4004 110.906 51.3281 110.906L114.383 110.906L114.383 47.8401C114.383 21.9124 135.401 0.893799 161.329 0.893799C187.257 0.893803 208.275 21.9124 208.275 47.8402V109.964H191.352C165.422 109.964 144.401 130.985 144.401 156.915C144.401 182.845 165.422 203.866 191.352 203.866H208.275L208.275 266.923Z" fill="#4C73F4"/>
</g>
<path d="M68.24 454.292C61.1665 454.292 58.1048 449.858 58.1048 440.884C58.1048 431.488 61.272 427.053 68.1345 427.053C74.469 427.053 78.3753 431.699 78.3753 438.984V442.89C78.3753 449.858 74.2578 454.292 68.24 454.292ZM78.3753 465.483H92.7336V397.703H78.3753V428.32L77.7418 428.848C75.1024 419.663 69.7181 414.068 61.3776 414.068C50.3978 414.068 44.0632 423.464 44.0632 440.884C44.0632 457.776 50.3978 466.961 61.1665 466.961C70.0348 466.961 75.7359 460.415 77.953 450.702L78.0586 452.392L78.3753 452.18V465.483Z" fill="#4C73F4"/>
<path d="M126.326 466.961C142.267 466.961 151.98 456.931 151.98 440.462C151.98 423.781 141.951 414.068 126.326 414.068C110.384 414.068 100.46 423.781 100.46 440.462C100.46 456.931 110.067 466.961 126.326 466.961ZM126.22 426.103C134.138 426.103 137.622 431.277 137.622 440.356C137.622 449.436 134.244 454.714 126.22 454.714C118.091 454.714 114.818 449.436 114.818 440.356C114.818 431.277 118.302 426.103 126.22 426.103Z" fill="#4C73F4"/>
<path d="M180.178 466.961C195.275 466.961 201.716 461.049 201.716 451.336C201.716 443.523 197.915 438.35 182.29 435.077C173.316 433.282 171.943 431.277 171.943 428.532C171.943 425.575 174.266 423.992 179.017 423.992C184.19 423.992 186.513 425.998 187.674 431.171L200.449 428.532C198.654 419.769 193.903 414.068 179.334 414.068C165.186 414.068 158.324 419.769 158.324 429.376C158.324 437.928 162.969 442.468 176.694 445.424C185.879 447.218 187.885 448.908 187.885 451.969C187.78 455.242 185.351 456.826 180.495 456.826C174.266 456.826 170.888 453.975 169.621 448.485L156.74 451.125C158.113 460.204 163.286 466.961 180.178 466.961Z" fill="#4C73F4"/>
<path d="M224.282 408.367V398.02H209.291V408.367H224.282ZM223.966 465.483V415.44H209.607V465.483H223.966Z" fill="#4C73F4"/>
<path d="M255.03 466.961C270.127 466.961 276.567 461.049 276.567 451.336C276.567 443.523 272.766 438.35 257.141 435.077C248.167 433.282 246.795 431.277 246.795 428.532C246.795 425.575 249.117 423.992 253.868 423.992C259.041 423.992 261.364 425.998 262.525 431.171L275.3 428.532C273.505 419.769 268.754 414.068 254.185 414.068C240.038 414.068 233.175 419.769 233.175 429.376C233.175 437.928 237.821 442.468 251.546 445.424C260.731 447.218 262.737 448.908 262.737 451.969C262.631 455.242 260.203 456.826 255.346 456.826C249.117 456.826 245.739 453.975 244.472 448.485L231.592 451.125C232.964 460.204 238.137 466.961 255.03 466.961Z" fill="#4C73F4"/>
<defs>
<filter id="filter0_d" x="0.381836" y="0.893799" width="319.861" height="320.976" filterUnits="userSpaceOnUse" color-interpolation-filters="sRGB">
<feFlood flood-opacity="0" result="BackgroundImageFix"/>
<feColorMatrix in="SourceAlpha" type="matrix" values="0 0 0 0 0 0 0 0 0 0 0 0 0 0 0 0 0 0 127 0"/>
<feOffset dy="4"/>
<feGaussianBlur stdDeviation="2"/>
<feColorMatrix type="matrix" values="0 0 0 0 0 0 0 0 0 0 0 0 0 0 0 0 0 0 0.25 0"/>
<feBlend mode="normal" in2="BackgroundImageFix" result="effect1_dropShadow"/>
<feBlend mode="normal" in="SourceGraphic" in2="effect1_dropShadow" result="shape"/>
</filter>
</defs>
</svg>
