<svg width="36" height="39" viewBox="0 0 36 39" fill="none" xmlns="http://www.w3.org/2000/svg">
<path d="M18.3596 38.6864C16.2566 38.6864 14.5518 36.9815 14.5518 34.8785H22.1675C22.1675 36.9815 20.4627 38.6864 18.3596 38.6864ZM32.801 38.496L27.2796 32.9746H3.12816V29.1667L6.93602 27.2628V16.7911C6.92938 15.5137 7.04542 14.2385 7.28254 12.9833L0.491211 6.18432L3.18337 3.49215L35.4912 35.8057L32.801 38.496ZM29.7813 24.7096L11.2751 6.20145C12.265 5.51527 13.3773 5.02535 14.5518 4.75827V0.607697H22.1675V4.75827C27.0777 5.92538 29.7832 10.1997 29.7832 16.7911V24.7115L29.7813 24.7096Z" fill="#B1B1B1"/>
</svg>
