<svg width="36" height="36" viewBox="0 0 36 36" fill="none" xmlns="http://www.w3.org/2000/svg">
<path d="M18.3537 35.1732C16.4189 35.1638 14.85 33.6027 14.8309 31.668H21.8414C21.8456 32.1365 21.7569 32.6011 21.5803 33.035C21.1202 34.0899 20.1812 34.8594 19.0565 35.1031H19.0477H19.0249H19.0074H18.9881H18.9759C18.7711 35.1456 18.5628 35.169 18.3537 35.1732ZM32.3747 29.9154H4.33265V26.4101L7.83791 24.6575V15.018C7.74558 12.5453 8.304 10.0916 9.45734 7.90234C10.6054 5.87194 12.5677 4.43017 14.8484 3.9414V0.120667H21.8589V3.9414C26.379 5.01751 28.8695 8.95041 28.8695 15.018V24.6575L32.3747 26.4101V29.9154ZM35.8274 14.1417H32.3221C32.1589 9.60922 29.98 5.38645 26.3807 2.62693L28.8695 0.120667C30.9657 1.75145 32.6596 3.84169 33.8206 6.23033C35.0212 8.70334 35.704 11.3955 35.8274 14.1417ZM4.33265 14.1417H0.827393C0.950702 11.3955 1.63358 8.70332 2.83415 6.23033C3.9952 3.84169 5.68909 1.75145 7.78533 0.120667L10.2741 2.62693C6.67436 5.38613 4.49539 9.60909 4.33265 14.1417Z" fill="#B1B1B1"/>
</svg>
