<svg width="21" height="37" viewBox="0 0 21 37" fill="none" xmlns="http://www.w3.org/2000/svg">
<path d="M10.5884 17.8988H3.15855V10.6123C3.15855 6.6426 6.46598 3.39299 10.5542 3.39299H10.7251C14.8133 3.39299 18.1208 6.6426 18.1208 10.6123V17.8988H14.6046H11.1281H10.5884ZM11.1281 19.8949H18.1208V27.1814C18.1208 31.1511 14.8133 34.4007 10.7251 34.4007H10.5542C6.46598 34.4007 3.15855 31.1511 3.15855 27.1814V19.8949H10.5884H11.1281ZM10.7251 1.39685H10.5542C5.37312 1.39685 1.13965 5.51971 1.13965 10.6123V27.1814C1.13965 32.2737 5.37311 36.3969 10.5542 36.3969H10.7251C15.9059 36.3969 20.1396 32.2737 20.1396 27.1814V10.6123C20.1394 5.51972 15.9059 1.39685 10.7251 1.39685Z" fill="#B1B1B1" stroke="#B1B1B1"/>
</svg>
