<svg width="36" height="36" viewBox="0 0 36 36" fill="none" xmlns="http://www.w3.org/2000/svg">
<path d="M25.6973 10.2406C25.6973 14.7087 22.0716 18.3344 17.6035 18.3344C13.1354 18.3344 9.50977 14.7087 9.50977 10.2406C9.50977 5.77253 13.1354 2.14685 17.6035 2.14685C22.0716 2.14685 25.6973 5.77253 25.6973 10.2406ZM17.6035 25.1156C19.5032 25.1156 21.3135 24.7207 22.9562 24.0219H26.3535C30.22 24.0219 33.3535 27.1553 33.3535 31.0219V32.1156C33.3535 32.9606 32.6673 33.6469 31.8223 33.6469H3.38477C2.53974 33.6469 1.85352 32.9606 1.85352 32.1156V31.0219C1.85352 27.1553 4.98701 24.0219 8.85352 24.0219H12.252C13.8974 24.7198 15.7017 25.1156 17.6035 25.1156Z" stroke="#B1B1B1" stroke-width="3.5"/>
</svg>
