<?xml version="1.0"?>
<svg xmlns="http://www.w3.org/2000/svg" xmlns:xlink="http://www.w3.org/1999/xlink" xmlns:svgjs="http://svgjs.com/svgjs" version="1.1" width="512" height="512" x="0" y="0" viewBox="0 0 512 512" style="enable-background:new 0 0 512 512" xml:space="preserve" class=""><g transform="matrix(1,0,0,1,65,0)"><path xmlns="http://www.w3.org/2000/svg" d="m371 91h-45.042969v-15c0-8.285156-6.714843-15-15-15h-47.699219c-4.875-34.433594-34.542968-61-70.300781-61-35.753906 0-65.421875 26.566406-70.296875 61h-47.699218c-8.285157 0-15 6.714844-15 15v15h-44.960938c-8.285156 0-15 6.714844-15 15v391c0 8.285156 6.714844 15 15 15h356c8.285156 0 15-6.714844 15-15v-391c0-8.285156-6.714844-15-15-15zm-281.039062 0h47.222656c4.207031 0 8.222656-1.769531 11.0625-4.871094 2.84375-3.105468 4.25-7.257812 3.878906-11.449218-.109375-1.25-.164062-2.488282-.164062-3.679688 0-22.605469 18.390624-41 40.996093-41 22.609375 0 41 18.394531 41 41 0 1.191406-.054687 2.429688-.164062 3.679688-.371094 4.191406 1.035156 8.347656 3.878906 11.449218 2.839844 3.105469 6.851563 4.871094 11.0625 4.871094h47.222656v30.996094h-205.996093zm266.039062 391h-326v-361h29.960938v15.996094c0 8.285156 6.714843 15 15 15h235.996093c8.285157 0 15-6.714844 15-15v-15.996094h30.042969zm0 0" fill="#d4d4d4" data-original="#000000" style="" class=""/><path xmlns="http://www.w3.org/2000/svg" d="m311 182h-236c-8.285156 0-15 6.714844-15 15 0 8.28125 6.714844 15 15 15h236c8.285156 0 15-6.71875 15-15 0-8.285156-6.714844-15-15-15zm0 0" fill="#d4d4d4" data-original="#000000" style="" class=""/><path xmlns="http://www.w3.org/2000/svg" d="m75 272h155c8.285156 0 15-6.71875 15-15 0-8.285156-6.714844-15-15-15h-155c-8.285156 0-15 6.714844-15 15 0 8.28125 6.714844 15 15 15zm0 0" fill="#d4d4d4" data-original="#000000" style="" class=""/><path xmlns="http://www.w3.org/2000/svg" d="m311 302h-236c-8.285156 0-15 6.714844-15 15 0 8.28125 6.714844 15 15 15h236c8.285156 0 15-6.71875 15-15 0-8.285156-6.714844-15-15-15zm0 0" fill="#d4d4d4" data-original="#000000" style="" class=""/><path xmlns="http://www.w3.org/2000/svg" d="m272 362h-197c-8.285156 0-15 6.714844-15 15 0 8.28125 6.714844 15 15 15h197c8.285156 0 15-6.71875 15-15 0-8.285156-6.714844-15-15-15zm0 0" fill="#d4d4d4" data-original="#000000" style="" class=""/><path xmlns="http://www.w3.org/2000/svg" d="m171.5 422h-96.5c-8.285156 0-15 6.714844-15 15 0 8.28125 6.714844 15 15 15h96.5c8.285156 0 15-6.71875 15-15 0-8.285156-6.714844-15-15-15zm0 0" fill="#d4d4d4" data-original="#000000" style="" class=""/><path xmlns="http://www.w3.org/2000/svg" d="m193.71875 51h-1.519531c-8.285157 0-15 6.714844-15 15 0 8.28125 6.714843 15 15 15h1.519531c8.285156 0 15-6.71875 15-15 0-8.285156-6.714844-15-15-15zm0 0" fill="#d4d4d4" data-original="#000000" style="" class=""/></g></svg>
