<svg width="31" height="31" viewBox="0 0 31 31" fill="none" xmlns="http://www.w3.org/2000/svg">
<path d="M28.1738 30.7706L17.7651 20.3601C13.1348 23.652 6.75436 22.8468 3.08706 18.5077C-0.580236 14.1686 -0.310957 7.74321 3.70654 3.72618C7.72297 -0.292608 14.149 -0.563053 18.4889 3.10405C22.8288 6.77116 23.6345 13.1522 20.3423 17.783L30.751 28.1935L28.1757 30.7688L28.1738 30.7706ZM11.4325 4.16691C7.97876 4.16614 4.99909 6.59049 4.2975 9.9722C3.59591 13.3539 5.36521 16.7635 8.53421 18.1367C11.7032 19.5099 15.4009 18.4693 17.3886 15.6448C19.3762 12.8204 19.1076 8.98849 16.7452 6.46906L17.8471 7.56183L16.605 6.32335L16.5831 6.3015C15.2204 4.93038 13.3656 4.1617 11.4325 4.16691Z" fill="#B1B1B1"/>
</svg>
