<svg width="36" height="37" viewBox="0 0 36 37" fill="none" xmlns="http://www.w3.org/2000/svg">
<path d="M21.6174 36.6847H15.0516C14.2041 36.6847 13.4707 36.0949 13.2893 35.267L12.5552 31.8687C11.5758 31.4396 10.6472 30.903 9.7864 30.2687L6.47286 31.3239C5.66477 31.5816 4.7863 31.2415 4.36244 30.5068L1.07235 24.8231C0.653132 24.0881 0.797562 23.1609 1.42048 22.5882L3.99086 20.2433C3.87397 19.1811 3.87397 18.1093 3.99086 17.047L1.42048 14.7075C0.796644 14.1346 0.652157 13.2063 1.07235 12.4709L4.35522 6.78355C4.77909 6.04887 5.65755 5.70874 6.46564 5.96644L9.77918 7.02165C10.2194 6.69545 10.6777 6.39434 11.1519 6.11976C11.607 5.86307 12.0755 5.63066 12.5552 5.4235L13.2911 2.02879C13.4716 1.2008 14.2042 0.610114 15.0516 0.609222H21.6174C22.4648 0.610114 23.1973 1.2008 23.3779 2.02879L24.121 5.42531C24.6275 5.6481 25.1207 5.89984 25.5983 6.17928C26.0437 6.43689 26.4743 6.71932 26.888 7.02525L30.2033 5.97005C31.0109 5.71331 31.8883 6.05331 32.312 6.78716L35.5948 12.4745C36.014 13.2095 35.8696 14.1367 35.2467 14.7093L32.6763 17.0543C32.7932 18.1165 32.7932 19.1883 32.6763 20.2505L35.2467 22.5955C35.8696 23.1681 36.014 24.0953 35.5948 24.8303L32.312 30.5176C31.8883 31.2515 31.0109 31.5915 30.2033 31.3347L26.888 30.2795C26.4685 30.5885 26.0325 30.8745 25.5821 31.1363C25.1092 31.4103 24.6214 31.6578 24.121 31.8777L23.3779 35.267C23.1966 36.0943 22.4643 36.684 21.6174 36.6847ZM10.434 26.2752L11.913 27.3574C12.2465 27.603 12.594 27.8289 12.9538 28.0338C13.2924 28.2299 13.641 28.4081 13.9982 28.5678L15.6811 29.3055L16.5055 33.0772H20.1671L20.9915 29.3037L22.6744 28.566C23.4091 28.242 24.1064 27.8392 24.7541 27.3646L26.235 26.2824L29.9165 27.4548L31.7474 24.2838L28.892 21.6809L29.094 19.8555C29.1828 19.0571 29.1828 18.2513 29.094 17.4529L28.892 15.6275L31.7492 13.0192L29.9165 9.84636L26.235 11.0188L24.7541 9.93655C24.1062 9.45983 23.4089 9.05406 22.6744 8.72622L20.9915 7.98847L20.1671 4.21678H16.5055L15.6775 7.99028L13.9982 8.72622C13.6407 8.88322 13.2921 9.05966 12.9538 9.25472C12.5962 9.45914 12.2505 9.68378 11.9185 9.92753L10.4376 11.0098L6.75785 9.83734L4.92341 13.0192L7.77879 15.6184L7.57677 17.4457C7.48803 18.2441 7.48803 19.0499 7.57677 19.8483L7.77879 21.6737L4.92341 24.2766L6.75425 27.4476L10.434 26.2752ZM18.3273 25.8621C14.3425 25.8621 11.1122 22.6318 11.1122 18.647C11.1122 14.6622 14.3425 11.4319 18.3273 11.4319C22.3121 11.4319 25.5424 14.6622 25.5424 18.647C25.5374 22.6297 22.31 25.8571 18.3273 25.8621ZM18.3273 15.0394C16.3565 15.0414 14.752 16.6247 14.7237 18.5953C14.6955 20.5659 16.254 22.1945 18.2239 22.2529C20.1938 22.3114 21.8461 20.7781 21.9348 18.8093V19.5308V18.647C21.9348 16.6546 20.3197 15.0394 18.3273 15.0394Z" fill="#B1B1B1"/>
</svg>
