<svg width="52" height="29" viewBox="0 0 52 29" fill="none" xmlns="http://www.w3.org/2000/svg">
<g clip-path="url(#clip0)">
<path d="M37.5005 0.795288H14.5005C7.04464 0.795288 1.00049 6.83944 1.00049 14.2953C1.00049 21.7511 7.04464 27.7953 14.5005 27.7953H37.5005C44.9563 27.7953 51.0005 21.7511 51.0005 14.2953C51.0005 6.83944 44.9563 0.795288 37.5005 0.795288Z" stroke="#BDBDBD"/>
<path d="M15.5005 25.2953C21.5756 25.2953 26.5005 20.3704 26.5005 14.2953C26.5005 8.22016 21.5756 3.29529 15.5005 3.29529C9.42536 3.29529 4.50049 8.22016 4.50049 14.2953C4.50049 20.3704 9.42536 25.2953 15.5005 25.2953Z" fill="#BDBDBD"/>
</g>
<defs>
<clipPath id="clip0">
<rect width="51" height="28" fill="white" transform="translate(0.500488 0.295288)"/>
</clipPath>
</defs>
</svg>
