<svg width="52" height="29" viewBox="0 0 52 29" fill="none" xmlns="http://www.w3.org/2000/svg">
<g clip-path="url(#clip0)">
<path d="M14.1641 0.795288H37.1641C44.6199 0.795288 50.6641 6.83944 50.6641 14.2953C50.6641 21.7511 44.6199 27.7953 37.1641 27.7953H14.1641C6.70822 27.7953 0.664062 21.7511 0.664062 14.2953C0.664062 6.83944 6.70822 0.795288 14.1641 0.795288Z" fill="#C4C4C4" stroke="#B1B1B1"/>
<path d="M37.1641 0.795288H14.1641C6.70822 0.795288 0.664062 6.83944 0.664062 14.2953C0.664062 21.7511 6.70822 27.7953 14.1641 27.7953H37.1641C44.6199 27.7953 50.6641 21.7511 50.6641 14.2953C50.6641 6.83944 44.6199 0.795288 37.1641 0.795288Z" fill="#C4C4C4" stroke="#B1B1B1"/>
<path d="M37.1641 25.2953C43.2392 25.2953 48.1641 20.3704 48.1641 14.2953C48.1641 8.22016 43.2392 3.29529 37.1641 3.29529C31.0889 3.29529 26.1641 8.22016 26.1641 14.2953C26.1641 20.3704 31.0889 25.2953 37.1641 25.2953Z" fill="black" fill-opacity="0.42"/>
</g>
<defs>
<clipPath id="clip0">
<rect width="51" height="28" fill="white" transform="translate(0.164062 0.295288)"/>
</clipPath>
</defs>
</svg>
