<svg width="99" height="144" viewBox="0 0 99 144" fill="none" xmlns="http://www.w3.org/2000/svg">
<rect x="84.3755" y="42.6953" width="5.80291" height="25.592" rx="2.90145" transform="rotate(5.01096 84.3755 42.6953)" fill="#4C73F4"/>
<rect x="45.1411" y="25.0161" width="22.9046" height="72.4015" rx="11.4523" transform="rotate(-26.7745 45.1411 25.0161)" fill="#CBDD83"/>
<rect x="74.4272" y="34.5547" width="5.80291" height="19.5491" rx="2.90145" transform="rotate(-37.7834 74.4272 34.5547)" fill="#4C73F4"/>
<rect x="53.8667" y="127.59" width="3.64486" height="31.512" rx="1.82243" transform="rotate(-149.924 53.8667 127.59)" fill="#4C73F4"/>
<rect x="50.501" y="127.34" width="3.90235" height="16.0269" rx="1.95117" transform="rotate(-71.3649 50.501 127.34)" fill="#4C73F4"/>
<rect x="2.65527" y="123.228" width="3.64486" height="31.512" rx="1.82243" transform="rotate(-133.443 2.65527 123.228)" fill="#4C73F4"/>
<rect x="-0.435059" y="121.479" width="3.90235" height="16.0269" rx="1.95117" transform="rotate(-46.75 -0.435059 121.479)" fill="#4C73F4"/>
<rect x="54.2344" y="16.3545" width="22.9046" height="70.5149" rx="11.4523" transform="rotate(19.2055 54.2344 16.3545)" fill="#CBDD83"/>
<rect x="52.668" y="9.37012" width="12.0079" height="12.0228" rx="6.00395" transform="rotate(-44.304 52.668 9.37012)" fill="#4C73F4"/>
<rect x="78.6519" y="61.5259" width="22.9046" height="59.6152" rx="11.4523" transform="rotate(31.385 78.6519 61.5259)" fill="#CBDD83"/>
<rect x="44.1567" y="59.6216" width="22.9046" height="67.847" rx="11.4523" transform="rotate(40.1475 44.1567 59.6216)" fill="#CBDD83"/>
<rect x="34.2109" y="38.29" width="5.80291" height="25.592" rx="2.90145" transform="rotate(5.01096 34.2109 38.29)" fill="#4C73F4"/>
<rect x="54.2109" y="22.0054" width="5.80291" height="28.2682" rx="2.90145" transform="rotate(48.0983 54.2109 22.0054)" fill="#4C73F4"/>
<path d="M54.8735 20.1442L65.3801 23.1719L48.4687 38.7677L41.0466 30.5469L54.8735 20.1442Z" fill="#CBDD83"/>
<path d="M66.9918 20.7159L56.4851 23.7437L73.3965 39.3395L80.8186 31.1186L66.9918 20.7159Z" fill="#CBDD83"/>
</svg>
