<svg width="134" height="137" viewBox="0 0 134 137" fill="none" xmlns="http://www.w3.org/2000/svg">
<rect x="75.8892" y="66.8291" width="5.80291" height="25.592" rx="2.90145" transform="rotate(126.226 75.8892 66.8291)" fill="#4C73F4"/>
<rect x="50.356" y="26.8398" width="5.80291" height="28.2682" rx="2.90145" transform="rotate(32.607 50.356 26.8398)" fill="#4C73F4"/>
<path d="M53.5453 22.0265L64.4795 22.0268L52.5474 41.6953L43.1393 35.8509L53.5453 22.0265Z" fill="#8DBCF6"/>
<rect x="119.68" y="125.787" width="3.64486" height="31.512" rx="1.82243" transform="rotate(159.753 119.68 125.787)" fill="#4C73F4"/>
<rect x="9.58887" y="123.733" width="3.64486" height="31.512" rx="1.82243" transform="rotate(-136.37 9.58887 123.733)" fill="#4C73F4"/>
<rect x="117.339" y="128.217" width="3.90235" height="16.0269" rx="1.95117" transform="rotate(-121.688 117.339 128.217)" fill="#4C73F4"/>
<rect x="6.45117" y="122.089" width="3.90235" height="16.0269" rx="1.95117" transform="rotate(-49.6767 6.45117 122.089)" fill="#4C73F4"/>
<rect x="52.9106" y="16.627" width="22.9046" height="67.847" rx="11.4523" transform="rotate(12.919 52.9106 16.627)" fill="#8DBCF6"/>
<rect x="46.1621" y="30.0107" width="22.9046" height="67.847" rx="11.4523" transform="rotate(-44.304 46.1621 30.0107)" fill="#8DBCF6"/>
<rect x="52.3267" y="9.34912" width="12.0079" height="12.0228" rx="6.00395" transform="rotate(-44.304 52.3267 9.34912)" fill="#4C73F4"/>
<rect x="79.9585" y="58.9019" width="22.9046" height="67.847" rx="11.4523" transform="rotate(-21.7887 79.9585 58.9019)" fill="#8DBCF6"/>
<rect x="50.0635" y="58.9019" width="22.9046" height="67.847" rx="11.4523" transform="rotate(41.3133 50.0635 58.9019)" fill="#8DBCF6"/>
<rect x="51.5059" y="69.0566" width="5.80291" height="25.592" rx="2.90145" transform="rotate(154.99 51.5059 69.0566)" fill="#4C73F4"/>
</svg>
