<svg width="84" height="144" viewBox="0 0 84 144" fill="none" xmlns="http://www.w3.org/2000/svg">
<rect x="30.0635" y="24.874" width="22.9046" height="72.4015" rx="11.4523" transform="rotate(-26.7745 30.0635 24.874)" fill="#76BA9B"/>
<rect x="59.3496" y="34.4126" width="5.80291" height="19.5491" rx="2.90145" transform="rotate(-37.7834 59.3496 34.4126)" fill="#4C73F4"/>
<rect x="66.0688" y="131.213" width="3.64486" height="31.512" rx="1.82243" transform="rotate(-177.95 66.0688 131.213)" fill="#4C73F4"/>
<rect width="3.64486" height="31.512" rx="1.82243" transform="matrix(0.986156 -0.165819 -0.165819 -0.986156 22.1821 135.61)" fill="#4C73F4"/>
<rect x="62.9805" y="132.574" width="3.90235" height="16.0269" rx="1.95117" transform="rotate(-99.3911 62.9805 132.574)" fill="#4C73F4"/>
<rect width="3.90235" height="16.0269" rx="1.95117" transform="matrix(-0.10866 -0.994079 -0.994079 0.10866 25.7026 136.006)" fill="#4C73F4"/>
<path d="M62.6919 122.415L66.3508 122.897L66.0633 129.239L62.6045 130.479L62.6919 122.415Z" fill="#4C73F4"/>
<path d="M24.3825 126.446L20.8179 127.402L21.9301 133.652L25.5211 134.43L24.3825 126.446Z" fill="#4C73F4"/>
<rect x="42.3877" y="14.3491" width="22.9046" height="70.5149" rx="11.4523" transform="rotate(36.663 42.3877 14.3491)" fill="#76BA9B"/>
<rect x="37.5903" y="9.22803" width="12.0079" height="12.0228" rx="6.00395" transform="rotate(-44.304 37.5903 9.22803)" fill="#4C73F4"/>
<rect x="56.7632" y="62.5688" width="22.9046" height="59.6152" rx="11.4523" transform="rotate(3.04491 56.7632 62.5688)" fill="#76BA9B"/>
<rect x="3.99951" y="58.9941" width="22.9046" height="67.847" rx="11.4523" transform="rotate(-5.50991 3.99951 58.9941)" fill="#76BA9B"/>
<rect x="19.1333" y="38.1479" width="5.80291" height="25.592" rx="2.90145" transform="rotate(5.01096 19.1333 38.1479)" fill="#4C73F4"/>
<rect x="69.2979" y="42.5532" width="5.80291" height="25.592" rx="2.90145" transform="rotate(5.01096 69.2979 42.5532)" fill="#4C73F4"/>
<rect x="39.1333" y="21.8633" width="5.80291" height="28.2682" rx="2.90145" transform="rotate(48.0983 39.1333 21.8633)" fill="#4C73F4"/>
<path d="M39.7958 20.0021L50.3025 23.0298L33.3911 38.6256L25.969 30.4048L39.7958 20.0021Z" fill="#76BA9B"/>
<path d="M51.9141 20.5738L41.4075 23.6016L58.3189 39.1974L65.741 30.9766L51.9141 20.5738Z" fill="#76BA9B"/>
</svg>
