<svg width="100" height="144" viewBox="0 0 100 144" fill="none" xmlns="http://www.w3.org/2000/svg">
<rect x="32.6514" y="25.6064" width="5.80291" height="20.2655" rx="2.90145" transform="rotate(42.9604 32.6514 25.6064)" fill="#4C73F4"/>
<rect x="23.8267" y="36.334" width="5.80291" height="25.592" rx="2.90145" transform="rotate(58.8141 23.8267 36.334)" fill="#4C73F4"/>
<rect x="33.7085" y="26.7559" width="22.9046" height="72.4015" rx="11.4523" transform="rotate(-1.60838 33.7085 26.7559)" fill="#FEC57B"/>
<rect x="50.4624" y="34.0732" width="5.80291" height="19.5491" rx="2.90145" transform="rotate(-6.73274 50.4624 34.0732)" fill="#4C73F4"/>
<rect x="97.6582" y="54.0483" width="3.64486" height="31.512" rx="1.82243" transform="rotate(51.6122 97.6582 54.0483)" fill="#4C73F4"/>
<rect width="3.64486" height="31.512" rx="1.82243" transform="matrix(0.986156 -0.165819 -0.165819 -0.986156 22.3662 135.726)" fill="#4C73F4"/>
<rect x="100.698" y="55.5161" width="3.90235" height="16.0269" rx="1.95117" transform="rotate(130.171 100.698 55.5161)" fill="#4C73F4"/>
<rect width="3.90235" height="16.0269" rx="1.95117" transform="matrix(-0.10866 -0.994079 -0.994079 0.10866 25.8867 136.123)" fill="#4C73F4"/>
<path d="M24.5666 126.562L21.0019 127.518L22.1142 133.768L25.7051 134.547L24.5666 126.562Z" fill="#4C73F4"/>
<rect x="42.5718" y="14.4653" width="22.9046" height="70.5149" rx="11.4523" transform="rotate(36.663 42.5718 14.4653)" fill="#FEC57B"/>
<rect x="37.7744" y="9.34424" width="12.0079" height="12.0228" rx="6.00395" transform="rotate(-44.304 37.7744 9.34424)" fill="#4C73F4"/>
<rect x="85.5493" y="52.2061" width="22.9046" height="59.6152" rx="11.4523" transform="rotate(61.0838 85.5493 52.2061)" fill="#FEC57B"/>
<rect x="4.18359" y="59.1104" width="22.9046" height="67.847" rx="11.4523" transform="rotate(-5.50991 4.18359 59.1104)" fill="#FEC57B"/>
<rect x="54.7866" y="46.1787" width="5.80291" height="25.592" rx="2.90145" transform="rotate(36.0616 54.7866 46.1787)" fill="#4C73F4"/>
<path d="M39.9799 20.1183L50.4866 23.146L33.5752 38.7418L26.1531 30.521L39.9799 20.1183Z" fill="#FEC57B"/>
<path d="M54.5597 24.9977L44.4332 20.8732L48.0641 43.5897L58.9818 41.7262L54.5597 24.9977Z" fill="#FEC57B"/>
</svg>
