<svg width="75" height="149" viewBox="0 0 75 149" fill="none" xmlns="http://www.w3.org/2000/svg">
<rect width="5.80291" height="25.592" rx="2.90145" transform="matrix(-0.687073 0.726588 0.726588 0.687073 19.3179 12.0591)" fill="#4C73F4"/>
<rect width="5.80291" height="28.2682" rx="2.90145" transform="matrix(-0.842387 0.538873 0.538873 0.842387 59.6025 26.5522)" fill="#4C73F4"/>
<path d="M56.2033 21.9421L45.3969 21.819L57.4114 41.4079L66.6436 35.7333L56.2033 21.9421Z" fill="#FFA8D0"/>
<rect width="3.64486" height="31.512" rx="1.82243" transform="matrix(0.958928 -0.28365 -0.28365 -0.958928 33.2241 126.425)" fill="#4C73F4"/>
<rect width="3.64486" height="31.512" rx="1.82243" transform="matrix(0.995284 -0.0970031 -0.0970031 -0.995284 54.0044 140.87)" fill="#4C73F4"/>
<rect width="3.90235" height="16.0269" rx="1.95117" transform="matrix(-0.0878027 -0.996138 -0.996138 0.0878027 36.5542 126.973)" fill="#4C73F4"/>
<rect width="3.90235" height="16.0269" rx="1.95117" transform="matrix(-0.0394329 -0.999222 -0.999222 0.0394329 57.4888 141.216)" fill="#4C73F4"/>
<path d="M34.3018 117.063L30.8786 118.442L32.7373 124.512L36.3959 124.851L34.3018 117.063Z" fill="#4C73F4"/>
<path d="M56.8346 131.587L53.2122 132.293L53.8882 138.606L57.4165 139.631L56.8346 131.587Z" fill="#4C73F4"/>
<rect width="22.9046" height="67.847" rx="11.4523" transform="matrix(-0.999998 0.00222528 0.00222528 0.999998 59.0415 18.0166)" fill="#FFA8D0"/>
<rect width="22.9046" height="67.847" rx="11.4523" transform="matrix(-0.715644 -0.698465 -0.698465 0.715644 63.7964 29.7231)" fill="#FFA8D0"/>
<rect width="12.0079" height="12.0228" rx="6.00395" transform="matrix(-0.715644 -0.698465 -0.698465 0.715644 57.6318 9.06152)" fill="#4C73F4"/>
<rect width="22.9046" height="67.847" rx="11.4523" transform="matrix(-0.96059 0.27797 0.27797 0.96059 24.5669 48.5708)" fill="#FFA8D0"/>
<rect width="22.9046" height="67.847" rx="11.4523" transform="matrix(-0.994003 0.109355 0.109355 0.994003 58.1436 61.8599)" fill="#FFA8D0"/>
<rect width="5.80291" height="25.592" rx="2.90145" transform="matrix(0.64774 0.761861 0.761861 -0.64774 51.5791 61.8599)" fill="#4C73F4"/>
</svg>
