<svg width="101" height="140" viewBox="0 0 101 140" fill="none" xmlns="http://www.w3.org/2000/svg">
<rect x="100.263" y="16.4639" width="5.80291" height="25.592" rx="2.90145" transform="rotate(84.6438 100.263 16.4639)" fill="#4C73F4"/>
<rect x="50.2935" y="21.6631" width="5.80291" height="28.2682" rx="2.90145" transform="rotate(67.1289 50.2935 21.6631)" fill="#4C73F4"/>
<path d="M56.511 18.8853L65.0101 25.7645L43.3612 33.5462L39.7252 23.0844L56.511 18.8853Z" fill="#B5AAF9"/>
<path d="M60.8225 17.9747L55.0836 27.2818L78.0879 27.4491L78.0514 16.3735L60.8225 17.9747Z" fill="#B5AAF9"/>
<rect x="84.0728" y="131.52" width="3.64486" height="31.512" rx="1.82243" transform="rotate(-177.95 84.0728 131.52)" fill="#4C73F4"/>
<rect x="7.95752" y="122.792" width="3.64486" height="31.512" rx="1.82243" transform="rotate(-136.37 7.95752 122.792)" fill="#4C73F4"/>
<rect x="80.9844" y="132.88" width="3.90235" height="16.0269" rx="1.95117" transform="rotate(-99.3911 80.9844 132.88)" fill="#4C73F4"/>
<rect x="4.81982" y="121.148" width="3.90235" height="16.0269" rx="1.95117" transform="rotate(-49.6767 4.81982 121.148)" fill="#4C73F4"/>
<rect x="52.458" y="15.6807" width="22.9046" height="67.847" rx="11.4523" transform="rotate(12.919 52.458 15.6807)" fill="#B5AAF9"/>
<rect x="49.2764" y="28.2749" width="22.9046" height="67.847" rx="11.4523" transform="rotate(-26.7745 49.2764 28.2749)" fill="#B5AAF9"/>
<rect x="51.874" y="8.40283" width="12.0079" height="12.0228" rx="6.00395" transform="rotate(-44.304 51.874 8.40283)" fill="#4C73F4"/>
<rect x="73.9243" y="61.9038" width="22.9046" height="59.6152" rx="11.4523" transform="rotate(3.04491 73.9243 61.9038)" fill="#B5AAF9"/>
<rect x="49.6108" y="57.9556" width="22.9046" height="67.847" rx="11.4523" transform="rotate(41.3133 49.6108 57.9556)" fill="#B5AAF9"/>
<rect x="26.9453" y="11.2642" width="5.80291" height="25.592" rx="2.90145" transform="rotate(5.01096 26.9453 11.2642)" fill="#4C73F4"/>
<rect x="95.0239" y="16.5" width="5.80291" height="25.592" rx="2.90145" transform="rotate(5.01096 95.0239 16.5)" fill="#4C73F4"/>
</svg>
